<svg height="32" xmlns="http://www.w3.org/2000/svg" viewBox="0 0 37 32"><defs><style>.cls-1{fill:#fff}</style></defs><path class="cls-1" d="M26.57 2.51v3h-2.85V2.72H13.34v2.77h-2.56v-3A2.14 2.14 0 0112.91.38h11.53a2.13 2.13 0 012.13 2.13z"/><path class="cls-1" d="M3.49 5.49h30.3A3.21 3.21 0 0137 8.7v7.9H.28V8.7a3.21 3.21 0 013.21-3.21zm12.53 13.06h5.19v2.68h-5.19z"/><path class="cls-1" d="M37 18.55v9.77a3.48 3.48 0 01-3.47 3.47H3.74a3.48 3.48 0 01-3.47-3.47v-9.77h13.79v3.09a1.72 1.72 0 001.72 1.72h5.75a1.72 1.72 0 001.72-1.72v-3.09z"/></svg>