<svg height="32" xmlns="http://www.w3.org/2000/svg" viewBox="0 0 30 32"><defs><style>.cls-1{fill:#fffdfd}</style></defs><path class="cls-1" d="M26.7 4.72h-3.95v3.56a.39.39 0 01-.39.39h-1.43a.38.38 0 01-.39-.39V4.72H9.4v3.56a.38.38 0 01-.4.39H7.61a.39.39 0 01-.4-.39V4.72H3.09A2.66 2.66 0 00.43 7.38v21.49a2.66 2.66 0 002.66 2.66H26.7a2.66 2.66 0 002.66-2.66V7.38a2.66 2.66 0 00-2.66-2.66zm-19 24.52h-5v-5h5zm0-6.08h-5v-5.52h5zm0-6.72h-5v-5h5zm6.62 12.8H8.78v-5h5.52zm0-6.08H8.78v-5.52h5.52zm0-6.72H8.78v-5h5.52zM21 29.24h-5.52v-5H21zm0-6.08h-5.52v-5.52H21zm0-6.72h-5.52v-5H21zm6.21 12.8h-5v-5h5zm0-6.08h-5v-5.52h5zm0-6.72h-5v-5h5z"/><path class="cls-1" d="M22.43.24h-1.57a2.6 2.6 0 00-2.6 2.6v3.77a2.6 2.6 0 002.6 2.6h1.57A2.6 2.6 0 0025 6.61V2.84a2.6 2.6 0 00-2.57-2.6zm.32 8a.39.39 0 01-.39.39h-1.43a.38.38 0 01-.39-.39V3a.39.39 0 01.39-.4h1.43a.4.4 0 01.39.4zM9 .24H7.49a2.61 2.61 0 00-2.61 2.61v3.76a2.6 2.6 0 002.61 2.6H9a2.6 2.6 0 002.6-2.6V2.85A2.61 2.61 0 009 .24zm.41 8a.38.38 0 01-.41.43H7.61a.39.39 0 01-.4-.39V3a.4.4 0 01.4-.4H9a.39.39 0 01.4.4z"/></svg>