<svg height="48" xmlns="http://www.w3.org/2000/svg" viewBox="0 0 45 48"><defs><style>.cls-1{fill:#fff}</style></defs><path class="cls-1" d="M33.05.66h-1.49A4.3 4.3 0 0027.26 5v7.13a4.3 4.3 0 004.3 4.29h1.49a4.3 4.3 0 004.3-4.29V5a4.3 4.3 0 00-4.3-4.34zM34 12.34a.94.94 0 01-.94.93h-1.48a.94.94 0 01-.94-.93v-7.4a.94.94 0 01.94-.94H33a.94.94 0 01.94.94z"/><path class="cls-1" d="M40.67 7.41H34v4.93a.94.94 0 01-.94.93h-1.48a.94.94 0 01-.94-.93V7.41H13.83v4.93a.93.93 0 01-.93.93h-1.46a.94.94 0 01-.94-.93V7.41H3.74a3.33 3.33 0 00-3.32 3.33v33.82a3.32 3.32 0 003.32 3.32h36.93A3.32 3.32 0 0044 44.56V10.74a3.33 3.33 0 00-3.33-3.33zm-.08 36.85H3.82V17.19h36.77z"/><path class="cls-1" d="M13 .66h-1.54A4.3 4.3 0 007.16 5v7.13a4.3 4.3 0 004.3 4.29H13a4.3 4.3 0 004.3-4.29V5A4.3 4.3 0 0013 .66zm.88 11.68a.93.93 0 01-.93.93h-1.51a.94.94 0 01-.94-.93v-7.4a.94.94 0 01.94-.94h1.46a.94.94 0 01.93.94zm6.62 22.85l11.58-11.54a1 1 0 011.39 0l.92.82a1 1 0 010 1.46L21 39.46a.66.66 0 01-.94 0l-7.54-7.73a1 1 0 010-1.4l.82-.87a1 1 0 011.45 0z"/></svg>