<svg height="32" xmlns="http://www.w3.org/2000/svg" viewBox="0 0 38 32"><defs><style>.cls-1{fill:#fff}</style></defs><path class="cls-1" d="M17.19 16.29L31.26 2.31s1.26-1.44 2.5-.42a37.29 37.29 0 012.89 2.78 1.76 1.76 0 01-.32 2.58l-17.9 17.78a1.83 1.83 0 01-2.52 0c-1.25-1.18-9.83-9.92-9.83-9.92a1.77 1.77 0 01.77-2.44l2.26-2.2a1.59 1.59 0 012.14.09c1.01 1 5.94 5.73 5.94 5.73z"/><path class="cls-1" d="M26.81 2.67l1.16-1.15S28.52.67 26.6.23 6.05.11 6.05.11A6.26 6.26 0 00.26 5.67c-.68 5.23 0 20.1 0 20.1a6 6 0 005.9 5.47h19.67a6.5 6.5 0 005.52-5.57v-7.94s-.26-1-1.26-.19q-.67.59-1 .93a1.32 1.32 0 00-.41 1l-.08 5.86a3.68 3.68 0 01-4.19 3.15H5.98a3.67 3.67 0 01-3-3.63c-.08-3.17.07-18.64.07-18.64s.35-3.13 3.38-3.26c2.73-.11 16.83.08 19.58.12a1.1 1.1 0 00.8-.4z"/></svg>