<svg height="32" xmlns="http://www.w3.org/2000/svg" viewBox="0 0 43 32"><defs><style>.cls-1{fill:#fff}</style></defs><rect class="cls-1" x="19.92" width="2.9" height="32.25" rx=".97" transform="rotate(15.93 21.386 16.136)"/><path class="cls-1" d="M29.33 6.93L38 16.12l-8.69 9a.69.69 0 000 1l.89.93a.69.69 0 001 0l10.64-10.44a.69.69 0 000-1L31.28 5.07a.69.69 0 00-1 0l-1 .9a.69.69 0 00.05.96zm-16.15 0l-8.67 9.19 8.69 9a.71.71 0 010 1l-.89.93a.69.69 0 01-1 0L.67 16.61a.69.69 0 010-1L11.23 5.07a.69.69 0 011 0l1 .9a.69.69 0 01-.05.96z"/></svg>