<svg height="48" xmlns="http://www.w3.org/2000/svg" viewBox="0 0 59 48"><path d="M55.83 23.93l-10.89-4.36V9.25a4 4 0 00-2.43-3.67L31 .67a4 4 0 00-3.16 0L16.5 5.64a4 4 0 00-2.39 3.65v10.28L3.23 23.93a4 4 0 00-2.51 3.7V38a4 4 0 002.2 3.57l11.13 5.58a4 4 0 003.56 0l12-6 11.83 6a4 4 0 003.56 0l11.15-5.51A4 4 0 0058.34 38V27.64a4 4 0 00-2.51-3.71zm-40 7.64L5.11 26.89l10.63-4.42 10.81 4.42zm11.83 6.9L17.45 43.4v-8.85l10.21-4.17zm1.75-24.9L17.74 8.51l11.64-5L41 8.85zm1.74 3l10.17-4.22v7.07l-10.17 4.2zM32.77 27l10.42-4.55L53.62 27l-10.3 4.55zM55 38.55L45 43.4v-8.93l10-4.09z" fill="#fff"/></svg>