<svg xmlns="http://www.w3.org/2000/svg" height="32" viewBox="0 0 28 32"><defs><style>.cls-1{fill:#fff}</style></defs><path class="cls-1" d="M.3 3.94a7.51 7.51 0 000 3.68c.51 2 7.44 3.32 7.44 3.32s7.87 1.08 12.83 0S26 9.21 26 9.21s1.72-.93 1.9-2.34c0 0 .29-3-.58-3.59A12.91 12.91 0 0020.57.66a31.79 31.79 0 00-6.45-.51c-2.21 0-4 .12-5 .19a14.42 14.42 0 00-2.58.38C4.48 1.21.79 2.31.3 3.94zM.14 10.7V14S0 15.12 2.51 16.27a21.32 21.32 0 004.77 1.51 55.36 55.36 0 007 .51c1.41 0 2.76-.06 3.72-.17a22 22 0 003.62-.58 36.07 36.07 0 004-1.26s2.1-.78 2.29-2.14a20.19 20.19 0 000-3.4 21.83 21.83 0 01-6.27 2.35 60.49 60.49 0 01-7.88.68A34.78 34.78 0 015.9 13c-3-.8-4.99-1.47-5.76-2.3zm0 6.87v3.3S0 22 2.51 23.14a20.71 20.71 0 004.77 1.51 55.36 55.36 0 007 .51c1.41 0 2.76-.06 3.72-.16a23.16 23.16 0 003.62-.59 36.07 36.07 0 004-1.26s2.1-.78 2.29-2.14a20.07 20.07 0 000-3.39 22 22 0 01-6.3 2.38 60.49 60.49 0 01-7.88.68 34.78 34.78 0 01-7.83-.78c-3-.83-4.99-1.5-5.76-2.33z"/><path class="cls-1" d="M.14 24.4v3.3S0 28.82 2.51 30a21.07 21.07 0 004.77 1.52 55.36 55.36 0 007 .51c1.41 0 2.76-.07 3.72-.17a23.16 23.16 0 003.62-.59 34 34 0 004-1.26s2.1-.78 2.29-2.14a20.07 20.07 0 000-3.39 22 22 0 01-6.27 2.34 60.49 60.49 0 01-7.88.68 34.78 34.78 0 01-7.83-.74C2.9 25.9.91 25.23.14 24.4z"/></svg>