<svg xmlns="http://www.w3.org/2000/svg" height="32" viewBox="0 0 37 32"><defs><style>.cls-1{fill:#fff}</style></defs><path class="cls-1" d="M13.72 27a7.23 7.23 0 01-1.13 3.3 1.16 1.16 0 001.13 1.57c1.57.15 9.87 0 9.87 0s1.7-.23.64-2.3-.77-2.85-.77-2.85z"/><path class="cls-1" d="M33.64 0H3.47A3.17 3.17 0 00.3 3.17v20.68A3.17 3.17 0 003.47 27h30.17a3.17 3.17 0 003.17-3.17V3.17A3.17 3.17 0 0033.64 0zm.64 18.84a.69.69 0 01-.69.68h-30a1 1 0 01-1-1V3.64a1 1 0 011-1h29.56a1.13 1.13 0 011.13 1.12z"/></svg>