<svg height="32" xmlns="http://www.w3.org/2000/svg" viewBox="0 0 41 32"><defs><style>.cls-1{fill:#fff}</style></defs><path class="cls-1" d="M37 0H3.68A3.42 3.42 0 00.26 3.43v24.83a3.42 3.42 0 003.42 3.42H37a3.42 3.42 0 003.42-3.42V3.43A3.42 3.42 0 0037 0zm.62 28.15a.85.85 0 01-.85.85H3.91a.85.85 0 01-.85-.85V3.87A.85.85 0 013.91 3h32.84a.85.85 0 01.85.85z"/><path class="cls-1" d="M3.06 5.23a11 11 0 002.28 3.92c1.36 1.19 13.32 10.72 13.32 10.72a3.2 3.2 0 003.15 0c1.45-1 11.53-9 11.53-9S36.91 8.47 37.6 5v6L23.94 22s-3.7 2.48-7 .15L3 11.25z"/></svg>