<svg height="32" xmlns="http://www.w3.org/2000/svg" viewBox="0 0 32 32"><path d="M30.66 7.28h-8.34a2.69 2.69 0 00-1.66.72s-.09-4.47 0-6S19.47.47 19.47.47s-6-.21-7.87 0a5 5 0 00-2.77 1L2 8.34a6.43 6.43 0 00-1.15 1.6 3.63 3.63 0 00-.45 1.73v12A1.88 1.88 0 002.06 25h9.54l.08 5.45a1.47 1.47 0 001.45 1.23s15.49.13 17.1 0a1.54 1.54 0 001.62-1.44V8.94c0-1.71-1.19-1.66-1.19-1.66zm-10 3.53v5.27h-5.23zM9.38 4v5.23H4.15zM13 15.23a4.18 4.18 0 00-1.32 2.47v5H2.74V11.57s6.47-.08 7.54 0 1.44-1.44 1.44-1.44V2.55h6.73v7.32s-4.13 3.92-5.45 5.36zm16.74 14.28H13.85V18.37h7.56s1.49-.48 1.49-1.48V9.23h6.86z" fill="#fff"/></svg>