<svg height="32" xmlns="http://www.w3.org/2000/svg" viewBox="0 0 36 32"><defs><style>.cls-1{fill:#fff}</style></defs><path class="cls-1" d="M1.47 4.89H4v26a.83.83 0 01-.83.83H2.3a.83.83 0 01-.83-.83v-26z"/><circle class="cls-1" cx="2.74" cy="2.85" r="2.68"/><path class="cls-1" d="M6.29 6.17a1.75 1.75 0 00-.86 1.51v15.26s.42 1.91 2.8.25a15.53 15.53 0 014.67-1.78 14.73 14.73 0 018.24.38c.91.31 1.94.71 3.09 1.23 4.14 1.86 9.24-1 11-2.21a1.38 1.38 0 00.59-1.14V4.47a1.54 1.54 0 00-1.67-1.55 3.75 3.75 0 00-1.48.53 28.44 28.44 0 01-4.51 2.08s-1.92.73-6.68-1.79c-4.55-2.39-12.13.77-12.13.77s-1.89.96-3.06 1.66z"/></svg>