<svg height="32" xmlns="http://www.w3.org/2000/svg" viewBox="0 0 21 32"><path d="M20.89 6.2A3.74 3.74 0 0020 4.28a3.63 3.63 0 00-4-1.13 3.94 3.94 0 00-2.81 4.28 3.57 3.57 0 001.81 2.8 5.08 5.08 0 01-1.74 4.71 13.87 13.87 0 01-3.94 1.75c-.41.11-.82.21-1.22.34l-2.1.69v-10a4.43 4.43 0 001.88-3.31A4 4 0 005.68.78 3.73 3.73 0 002.75.6 3.77 3.77 0 00.69 2.22C0 3.39-.56 5.46 2 7.74v16.73a4.05 4.05 0 00-1.53 4.85S1 32 4.33 31.74A3.83 3.83 0 007.84 28s.38-1.94-1.95-3.57c0 0-.57-2.49 2.4-3.45s4.31-1.43 4.31-1.43 4.94-1.54 5.84-5.69a12 12 0 00.56-3.67 3.46 3.46 0 001.89-3.99zm-15 21.67A1.89 1.89 0 114 26a1.89 1.89 0 011.91 1.87zM4 6.15a1.89 1.89 0 111.91-1.89A1.89 1.89 0 014 6.15zm13 2.66a1.89 1.89 0 111.9-1.88A1.89 1.89 0 0117 8.81z" fill="#fff"/></svg>