<svg height="20" xmlns="http://www.w3.org/2000/svg" viewBox="0 0 31 25"><defs><style>.cls-1{fill:#e5e5e5}</style></defs><path class="cls-1" d="M3.53.36H28a3.28 3.28 0 012.32.88c.72.7 1.2 1.83.06 4.06 0 0-.38 1.19-5.27 4.59l-7.71 5.37a3 3 0 01-3.27 0L4.21 8.69a12.46 12.46 0 01-2.59-2.27C.79 5.45 0 4.21.17 3.13a3.38 3.38 0 01.63-1.5A3.41 3.41 0 013.53.36z"/><path class="cls-1" d="M.34 8.28l12.43 8.89a5.23 5.23 0 005.66 0c2.85-1.91 12.62-8.77 12.62-8.77v13.88a2.55 2.55 0 01-2.45 2.25c-2.22.09-25.92 0-25.92 0a2.48 2.48 0 01-2.34-2.42c-.17-2.34 0-13.83 0-13.83z"/></svg>