<svg height="48" xmlns="http://www.w3.org/2000/svg" viewBox="0 0 48 48"><path d="M24.26.55A23.45 23.45 0 1047.7 24 23.45 23.45 0 0024.26.55zm.61 33.23a5.07 5.07 0 01-2.74-1.38 2 2 0 00-1.41-.12c-.76.22-3.19-1.69-3.19-1.69s.38-1.35-1.27-2.65a14.31 14.31 0 01-2.05-3.35s-1-.74-.12 1.11a11 11 0 011 2.46s-2-2.94-2.2-4c0 0-2.93-1.73-3.06-4.69s0-2.91 0-2.91 1.53.61.29-.83a19.45 19.45 0 00-2.3-2.26 15.92 15.92 0 017.44-6.77.39.39 0 01.35 0l.93.54.34-.38.94-.25S18 6 16.85 6c0 0 1.49-1.32 1.58.56l2.76.08.34.64v-.39l.73-.42s.51 0-1.07-1.07c0 0 .85-1 1.83.56a4.28 4.28 0 011.24.3c.2.14.33.72.55.85a.65.65 0 00.47-.05 6 6 0 00.93-1.23s1.19-.51.9 1.11-.9.22-1.2.17-.72.55-.72.55a1.59 1.59 0 01-1.87 1.19s-1.23 1.58-1 2.43a.64.64 0 01.55.76s2.6-.08 2.68.85h1.19a7.88 7.88 0 00.81 1.74c.18.18 1.15.6.85-.55a1.34 1.34 0 01.81-1.58s.43-.21-.38-1.06a1.54 1.54 0 000-1.53c-.51-.64 1.61-.47 1.61-.47s2.09.42 2 1.57 1.35-.06 1.79-.17a.87.87 0 011 .73 5.81 5.81 0 00.51 1.23l1.44.43s1 .59.68 1.27-.72.29-.72.29-.76 1.5-1.7.61-3.12.8-3.34 1c.21-.06 1.82-.57 1.93-.33a1.27 1.27 0 010 .72l.43.76-2.6 1.37s.35.93-1.19 1.15c0 0 .13 1-1.06.93 0 0-.38.34 0 .94s-.77 1.83-.77 1.83S27.4 24 27.4 25s.64.81.64.81l-.17 1.53s-.42.81-.93-.72S24 25.28 24 25.28s-.54.89-1.18.34-2 .85-2 .85l-.08 3.23s.63 1.49 1.7 1.45S24 29.83 24 29.83s1.19-.38 1 .38-.49 1.79-.49 1.79-.17 1.1 1.66.42a1.33 1.33 0 01.46 1.68 1.05 1.05 0 00.6 1.47l.83.13s.1 1-.67.7-2.52-2.62-2.52-2.62zM38 37.47C34.55 42.19 27.53 43 27.53 43s-.15-.66.15-.87.23-.72.23-.72-.76-1.22-.14-1.41 1.08-1.34 1.08-1.34l-.36-2.76h.74a3.37 3.37 0 01.58-.8 3.89 3.89 0 011.83-.75 3.08 3.08 0 011.68.79.67.67 0 001.08 0A2.67 2.67 0 0136.83 37c1.32-.06 1.17.47 1.17.47z" fill="#fff"/></svg>