<svg height="32" xmlns="http://www.w3.org/2000/svg" viewBox="0 0 48 32"><defs><style>.cls-1{fill:#fff}</style></defs><path class="cls-1" d="M7.76 10.72s-2 1.92-2.08 6.35a1 1 0 01-.37.77c-.69.52-2 1.89-.31 4a1.09 1.09 0 01.24.81l-1.06 8.67s-.32.5 2.32.56c0 0 3 .18 2.95-.48s-.89-7.27-1.09-8.93a.81.81 0 01.18-.6 2.68 2.68 0 000-3.89.88.88 0 01-.28-.66c0-1.11.35-4.28 2.07-5.79 2.05-1.85-2.57-.81-2.57-.81z"/><path class="cls-1" d="M23.16.3L1.33 7.76a.47.47 0 000 .89l21.49 6.92a3.25 3.25 0 002 0l21.58-7a.47.47 0 000-.89L24.92.3a2.79 2.79 0 00-1.76 0z"/><path class="cls-1" d="M11.28 14.85l9.87 3a8.71 8.71 0 005 0l10.54-3.09.39 6.94s.25 3.87-12.92 4.85c0 0-9.77.23-13-3.83a1.93 1.93 0 01-.41-1.32z"/></svg>