<svg height="65" xmlns="http://www.w3.org/2000/svg" viewBox="0 0 60 65"><path d="M51.51 35.28c3.21 3.95-.59 8.23-.59 8.23 2 5.3-1.85 7.4-1.85 7.4a7.4 7.4 0 01-2.19 7.54 4.53 4.53 0 01-2.57 1.11c-3.05.33-11.11.81-17.84-2.07s-9.86-3-10.89-2.87a.38.38 0 01-.41-.38V30.17a6.64 6.64 0 005.6-2.8s6.85-8 8.81-10.71c1.53-2.09 2.42-6.83 2.72-8.81a2.6 2.6 0 012.56-2.23 5 5 0 011.73.38 4.41 4.41 0 012.63 3 15.61 15.61 0 01.09 6.15 8.36 8.36 0 01-1.08 2.93 13 13 0 00-2.06 7.23h13.56a3.72 3.72 0 012.49 1c5.14 4.61-.71 8.97-.71 8.97zm5.89.79c3-3.89 1.5-8.77 1.5-8.77a9.9 9.9 0 00-9-6.81l-7.24-.13a15.46 15.46 0 011.2-3.15c1.19-2.76.38-7.4.38-7.4a10.66 10.66 0 00-2.14-5.38 7.9 7.9 0 00-4.84-3 17.1 17.1 0 00-5.49-.19c-3.24.48-4.87 7.58-5.44 10.76A6 6 0 0125 14.84l-8.22 9.66a2.16 2.16 0 01-1.64.76H5.88a5.89 5.89 0 00-4.32 1.88 4 4 0 00-1 2.74c0 4.69-.05 22.49 0 25.28a4.75 4.75 0 003 4 4.16 4.16 0 002 .33h10.69a4.77 4.77 0 011.79.36c4 1.62 13.5 4 13.5 4 3 .86 12.7.39 12.7.39 5.24-1 6.92-3.24 6.92-3.24 2.6-2.17 2.95-8.32 2.95-8.32C57 49.8 56.41 44 56.41 44c2.26-2.95.99-7.93.99-7.93zM7.83 55a2.62 2.62 0 112.62-2.62A2.61 2.61 0 017.83 55z" fill="#fff"/></svg>