<svg height="48" xmlns="http://www.w3.org/2000/svg" viewBox="0 0 46 48"><defs><style>.cls-1{fill:#fff}</style></defs><path class="cls-1" d="M19.71 15.66h6.64V24h-6.64zm0 17.02h6.64V46a1.62 1.62 0 01-1.62 1.62h-3.4A1.62 1.62 0 0119.71 46V32.68zM21.33.26h3.4a1.62 1.62 0 011.62 1.62v5h-6.64v-5A1.62 1.62 0 0121.33.26z"/><path class="cls-1" d="M2.86 12V5.49a1.92 1.92 0 011.91-1.92h36.3l4.45 4.48a1 1 0 010 1.42L40.82 14h-36a1.92 1.92 0 01-1.96-2zm40.66 17v-6.57a1.92 1.92 0 00-1.92-1.92H5.3L.85 25a1 1 0 000 1.42l4.69 4.49h36A1.91 1.91 0 0043.52 29z"/></svg>