<svg height="32" xmlns="http://www.w3.org/2000/svg" viewBox="0 0 32 32"><path d="M8.17 6.09s2.71 3.57-.86 4.91c0 0-1.63.85-7.31-.51v20.79s5.77 1.36 7.67.38 1.49-2.47 1.49-2.47l-.72-1.62s-2.75-4.51.75-6.25a3.89 3.89 0 015.29 1.28s1.65 2.17-1.06 5.1c0 0-2.09 3.7 1.56 4a25.1 25.1 0 007-.42l-.28-2.72s-.95-4.34 1.14-4.51a3.27 3.27 0 012.89.85s2.13 2 3.94 1.1a4 4 0 001.11-.82 4.07 4.07 0 001-3.42c-.21-1.34-.82-3.18-2.59-3.42-2.8-.38-3.85 1.19-3.85 1.19a2.2 2.2 0 01-2.94.11 3.07 3.07 0 01-.88-1.81 20 20 0 01.48-7.49s-5 .89-7.54.51a1.82 1.82 0 01-1.61-1.8 3.78 3.78 0 01.85-2.74 5.13 5.13 0 001-2.11A3.47 3.47 0 0011.16 0a4.4 4.4 0 00-2.77 1.06s-2.12 1.37-.22 5.03z" fill="#fff"/></svg>