<svg height="32" xmlns="http://www.w3.org/2000/svg" viewBox="0 0 41 32"><path d="M40.22 15.62c-2.85-10.47-11-13.53-11-13.53a20.37 20.37 0 00-16.48-.55 18.13 18.13 0 00-6.5 4.31A20.81 20.81 0 00.39 17.11 21.23 21.23 0 003 30.38a2.84 2.84 0 002.46 1.41h30.18A2.85 2.85 0 0038 30.54a17.58 17.58 0 002.22-14.92zM20.5 2.8a3 3 0 11-2.95 3 3 3 0 012.95-3zM5.94 23.32a2.95 2.95 0 113-2.95 3 3 0 01-3 2.95zm4.25-10.26a3 3 0 113-3 3 3 0 01-3 3zm15-.43L23 21s3.28 2.35 1.47 5.68a4.11 4.11 0 01-4.82 2.3 4.14 4.14 0 01-3.51-4.31c.1-3.8 4-4.26 4-4.26l2.14-8.13s.41-2 1.88-1.69 1 2.04 1 2.04zm2.41-2.53a3 3 0 112.95 3 2.95 2.95 0 01-2.95-3zM35 23.32a2.95 2.95 0 112.95-2.95A3 3 0 0135 23.32z" fill="#fff"/></svg>