<svg height="32" xmlns="http://www.w3.org/2000/svg" viewBox="0 0 35 32"><defs><style>.cls-1{fill:#fff}</style></defs><path class="cls-1" d="M17.24.26L.37 6.91v2.24h2.3s-.32 1 1 1.12 27.09 0 27.09 0 1.33-.07 1.24-1.06h2.21V7zM4.9 11.45h4.44v13.82H4.9zm6.7 0h4.44v13.82H11.6zm6.86 0h4.44v13.82h-4.44zm6.74 0h4.44v13.82H25.2z"/><path class="cls-1" d="M2.6 27.15h29.3V25.9s.09-.83-1.63-.89S3.65 25 3.65 25a1.12 1.12 0 00-1 .8zm-.7 1.08h30.73a1.53 1.53 0 011.53 1.53v1.95H.37v-1.94a1.53 1.53 0 011.53-1.54z"/></svg>