<svg height="32" xmlns="http://www.w3.org/2000/svg" viewBox="0 0 34.5 32"><defs><style>.cls-1{fill:#fff}</style></defs><circle class="cls-1" cx="7.12" cy="4.76" r="4.55"/><circle class="cls-1" cx="27.36" cy="4.76" r="4.55"/><circle class="cls-1" cx="17.25" cy="11.44" r="6.87"/><path class="cls-1" d="M9.33 10.3s-.45 3.51 1.28 5.7a6.21 6.21 0 00-4.54 2.32H3.35s-3-.15-3-2.32a40.93 40.93 0 01.23-4.77s.43-1.74 1.81-2c-.02-.02 3.54 2.47 6.94 1.07zm15.73 0s.45 3.51-1.28 5.7a6.21 6.21 0 014.54 2.32H31s3-.15 3-2.32a40.93 40.93 0 00-.23-4.77s-.43-1.74-1.81-2c.04-.02-3.49 2.47-6.9 1.07zm-14.72 6.9a1.74 1.74 0 011.1.33c1 .68 3.65 2.32 5.81 2.09a8.82 8.82 0 005-1.76 3.44 3.44 0 012.55-.53 4.62 4.62 0 013.41 2.76 19.89 19.89 0 011.41 7.29 4.2 4.2 0 01-3.86 4.41H9.4a5.26 5.26 0 01-2.74-.73 3.65 3.65 0 01-1.82-3.27 30.23 30.23 0 01.62-5.88s.72-2.95 3-4.17a4.37 4.37 0 011.88-.54z"/></svg>